<?xml version="1.0" encoding="UTF-8"?>
<svg id="Layer_2" data-name="Layer 2" xmlns="http://www.w3.org/2000/svg" viewBox="0 0 43.81 188.91">
  <defs>
    <style>
      .cls-1 {
        fill: none;
        stroke: #231f20;
        stroke-miterlimit: 10;
      }
    </style>
  </defs>
  <g id="Layer_1-2" data-name="Layer 1">
    <g>
      <g>
        <rect class="cls-1" x="12.75" y="9.05" width="3.2" height="11.52" rx="1.42" ry="1.42"/>
        <rect class="cls-1" x="17.78" y="9.05" width="3.2" height="11.52" rx="1.42" ry="1.42"/>
        <rect class="cls-1" x="22.8" y="9.05" width="3.2" height="11.52" rx="1.42" ry="1.42"/>
        <rect class="cls-1" x="27.83" y="9.05" width="3.2" height="11.52" rx="1.42" ry="1.42"/>
        <g>
          <rect class="cls-1" x="2.7" y="23.4" width="3.2" height="11.52" rx="1.42" ry="1.42"/>
          <rect class="cls-1" x="7.72" y="23.4" width="3.2" height="11.52" rx="1.42" ry="1.42"/>
          <rect class="cls-1" x="12.75" y="23.4" width="3.2" height="11.52" rx="1.42" ry="1.42"/>
          <rect class="cls-1" x="17.78" y="23.4" width="3.2" height="11.52" rx="1.42" ry="1.42"/>
          <rect class="cls-1" x="22.8" y="23.4" width="3.2" height="11.52" rx="1.42" ry="1.42"/>
          <rect class="cls-1" x="27.83" y="23.4" width="3.2" height="11.52" rx="1.42" ry="1.42"/>
          <rect class="cls-1" x="32.86" y="23.4" width="3.2" height="11.52" rx="1.42" ry="1.42"/>
          <rect class="cls-1" x="37.88" y="23.4" width="3.2" height="11.52" rx="1.42" ry="1.42"/>
        </g>
        <g>
          <rect class="cls-1" x="2.65" y="37.75" width="3.2" height="11.52" rx="1.42" ry="1.42"/>
          <rect class="cls-1" x="7.68" y="37.75" width="3.2" height="11.52" rx="1.42" ry="1.42"/>
          <rect class="cls-1" x="12.7" y="37.75" width="3.2" height="11.52" rx="1.42" ry="1.42"/>
          <rect class="cls-1" x="17.73" y="37.75" width="3.2" height="11.52" rx="1.42" ry="1.42"/>
          <rect class="cls-1" x="22.75" y="37.75" width="3.2" height="11.52" rx="1.42" ry="1.42"/>
          <rect class="cls-1" x="27.78" y="37.75" width="3.2" height="11.52" rx="1.42" ry="1.42"/>
          <rect class="cls-1" x="32.81" y="37.75" width="3.2" height="11.52" rx="1.42" ry="1.42"/>
          <rect class="cls-1" x="37.83" y="37.75" width="3.2" height="11.52" rx="1.42" ry="1.42"/>
        </g>
        <g>
          <rect class="cls-1" x="2.65" y="52.1" width="3.2" height="11.52" rx="1.42" ry="1.42"/>
          <rect class="cls-1" x="7.68" y="52.1" width="3.2" height="11.52" rx="1.42" ry="1.42"/>
          <rect class="cls-1" x="12.7" y="52.1" width="3.2" height="11.52" rx="1.42" ry="1.42"/>
          <rect class="cls-1" x="17.73" y="52.1" width="3.2" height="11.52" rx="1.42" ry="1.42"/>
          <rect class="cls-1" x="22.75" y="52.1" width="3.2" height="11.52" rx="1.42" ry="1.42"/>
          <rect class="cls-1" x="27.78" y="52.1" width="3.2" height="11.52" rx="1.42" ry="1.42"/>
          <rect class="cls-1" x="32.81" y="52.1" width="3.2" height="11.52" rx="1.42" ry="1.42"/>
          <rect class="cls-1" x="37.83" y="52.1" width="3.2" height="11.52" rx="1.42" ry="1.42"/>
        </g>
        <rect class="cls-1" x="2.74" y="66.45" width="3.2" height="11.52" rx="1.42" ry="1.42"/>
        <rect class="cls-1" x="7.77" y="66.45" width="3.2" height="11.52" rx="1.42" ry="1.42"/>
        <rect class="cls-1" x="12.8" y="66.45" width="3.2" height="11.52" rx="1.42" ry="1.42"/>
        <rect class="cls-1" x="17.82" y="66.45" width="3.2" height="11.52" rx="1.42" ry="1.42"/>
        <rect class="cls-1" x="22.85" y="66.45" width="3.2" height="11.52" rx="1.42" ry="1.42"/>
        <rect class="cls-1" x="27.88" y="66.45" width="3.2" height="11.52" rx="1.42" ry="1.42"/>
        <rect class="cls-1" x="32.9" y="66.45" width="3.2" height="11.52" rx="1.42" ry="1.42"/>
        <rect class="cls-1" x="37.93" y="66.45" width="3.2" height="11.52" rx="1.42" ry="1.42"/>
        <g>
          <rect class="cls-1" x="2.74" y="80.8" width="3.2" height="11.52" rx="1.42" ry="1.42"/>
          <rect class="cls-1" x="7.77" y="80.8" width="3.2" height="11.52" rx="1.42" ry="1.42"/>
          <rect class="cls-1" x="12.8" y="80.8" width="3.2" height="11.52" rx="1.42" ry="1.42"/>
          <rect class="cls-1" x="17.82" y="80.8" width="3.2" height="11.52" rx="1.42" ry="1.42"/>
          <rect class="cls-1" x="22.85" y="80.8" width="3.2" height="11.52" rx="1.42" ry="1.42"/>
          <rect class="cls-1" x="27.88" y="80.8" width="3.2" height="11.52" rx="1.42" ry="1.42"/>
          <rect class="cls-1" x="32.9" y="80.8" width="3.2" height="11.52" rx="1.42" ry="1.42"/>
          <rect class="cls-1" x="37.93" y="80.8" width="3.2" height="11.52" rx="1.42" ry="1.42"/>
        </g>
        <g>
          <rect class="cls-1" x="2.7" y="95.15" width="3.2" height="11.52" rx="1.42" ry="1.42"/>
          <rect class="cls-1" x="7.72" y="95.15" width="3.2" height="11.52" rx="1.42" ry="1.42"/>
          <rect class="cls-1" x="12.75" y="95.15" width="3.2" height="11.52" rx="1.42" ry="1.42"/>
          <rect class="cls-1" x="17.78" y="95.15" width="3.2" height="11.52" rx="1.42" ry="1.42"/>
          <rect class="cls-1" x="22.8" y="95.15" width="3.2" height="11.52" rx="1.42" ry="1.42"/>
          <rect class="cls-1" x="27.83" y="95.15" width="3.2" height="11.52" rx="1.42" ry="1.42"/>
          <rect class="cls-1" x="32.86" y="95.15" width="3.2" height="11.52" rx="1.42" ry="1.42"/>
          <rect class="cls-1" x="37.88" y="95.15" width="3.2" height="11.52" rx="1.42" ry="1.42"/>
        </g>
        <g>
          <rect class="cls-1" x="2.7" y="109.5" width="3.2" height="12.73" rx="1.42" ry="1.42"/>
          <rect class="cls-1" x="7.72" y="109.5" width="3.2" height="11.52" rx="1.42" ry="1.42"/>
          <rect class="cls-1" x="12.75" y="109.5" width="3.2" height="11.52" rx="1.42" ry="1.42"/>
          <rect class="cls-1" x="17.78" y="109.5" width="3.2" height="11.52" rx="1.42" ry="1.42"/>
          <rect class="cls-1" x="22.8" y="109.5" width="3.2" height="11.52" rx="1.42" ry="1.42"/>
          <rect class="cls-1" x="27.83" y="109.5" width="3.2" height="11.52" rx="1.42" ry="1.42"/>
          <rect class="cls-1" x="32.86" y="109.5" width="3.2" height="11.52" rx="1.42" ry="1.42"/>
          <rect class="cls-1" x="37.88" y="109.5" width="3.2" height="12.73" rx="1.42" ry="1.42"/>
        </g>
      </g>
      <g>
        <line class="cls-1" x1="43.36" y1="144.32" x2="33.51" y2="163.31"/>
        <line class="cls-1" x1="1.45" y1="144.31" x2="11.3" y2="163.3"/>
        <g>
          <g>
            <line class="cls-1" x1="33.96" y1="163.07" x2="10.86" y2="163.07"/>
            <line class="cls-1" x1="43.3" y1="144.55" x2="42.3" y2="22.09"/>
            <line class="cls-1" x1="1.5" y1="144.55" x2=".5" y2="22.09"/>
          </g>
          <path class="cls-1" d="m42.35,22.37l-8.35-12.65c-2.15-3.26-4.98-6.01-8.3-8.07h0c-1.22-.75-2.62-1.15-4.05-1.15h-.27c-1.83,0-3.61.53-5.14,1.53h0c-2.77,1.81-5.14,4.17-6.96,6.93L.42,22.37"/>
        </g>
      </g>
      <rect class="cls-1" x="8.53" y="123.07" width="26.73" height="26.73"/>
      <g>
        <rect class="cls-1" x="16.52" y="163.07" width="10.74" height="25.34"/>
        <line class="cls-1" x1="21.89" y1="188.41" x2="21.89" y2="163.07"/>
      </g>
    </g>
  </g>
</svg>